<svg width="48" height="48" viewBox="0 0 48 48" fill="none" xmlns="http://www.w3.org/2000/svg">
  <!-- ponytail: piggy bank mascot — round silhouette reads at 16px→512px, no bg -->
  <!-- Ears -->
  <path d="M13 15 L9 5 L19 11 Z" fill="#f472b6"/>
  <path d="M35 15 L39 5 L29 11 Z" fill="#f472b6"/>
  <path d="M14 14 L12 8 L17 12 Z" fill="#ec4899"/>
  <path d="M34 14 L36 8 L31 12 Z" fill="#ec4899"/>
  <!-- Head -->
  <circle cx="24" cy="26" r="17" fill="#f472b6"/>
  <!-- Coin slot -->
  <rect x="19" y="11" width="10" height="2.2" rx="1.1" fill="#be185d" opacity="0.35"/>
  <!-- Eyes -->
  <ellipse cx="18" cy="22" rx="2.8" ry="3.2" fill="white"/>
  <ellipse cx="30" cy="22" rx="2.8" ry="3.2" fill="white"/>
  <circle cx="18.5" cy="21.5" r="1.6" fill="#1e293b"/>
  <circle cx="30.5" cy="21.5" r="1.6" fill="#1e293b"/>
  <circle cx="19.2" cy="20.5" r="0.6" fill="white"/>
  <circle cx="31.2" cy="20.5" r="0.6" fill="white"/>
  <!-- Cheeks -->
  <ellipse cx="13.5" cy="28" rx="2.5" ry="1.8" fill="#fb7185" opacity="0.45"/>
  <ellipse cx="34.5" cy="28" rx="2.5" ry="1.8" fill="#fb7185" opacity="0.45"/>
  <!-- Snout (gold = money) -->
  <ellipse cx="24" cy="31" rx="5.5" ry="4" fill="#fbbf24"/>
  <ellipse cx="22" cy="31" rx="0.9" ry="1.3" fill="#92400e"/>
  <ellipse cx="26" cy="31" rx="0.9" ry="1.3" fill="#92400e"/>
  <!-- Smile -->
  <path d="M20 36 Q24 38 28 36" stroke="#be185d" stroke-width="1.8" stroke-linecap="round" fill="none"/>
</svg>
