<svg width="48" height="48" viewBox="0 0 48 48" fill="none" xmlns="http://www.w3.org/2000/svg">
  <rect width="48" height="48" rx="10" fill="#3b82f6" />
  <path d="M24 5C13 5 7 12 7 22C7 27 9 31 13 33V35C13 36 14 37 15 37H33C34 37 35 36 35 35V33C39 31 41 27 41 22C41 12 35 5 24 5Z" fill="white" />
  <path d="M13 35C12 39 9 41 6 41C4 41 3 40 3 38" stroke="white" stroke-width="3" stroke-linecap="round" fill="none" />
  <path d="M17 36C16 40 14 43 11 44" stroke="white" stroke-width="3" stroke-linecap="round" fill="none" />
  <path d="M24 37V46" stroke="white" stroke-width="3" stroke-linecap="round" fill="none" />
  <path d="M31 36C32 40 34 43 37 44" stroke="white" stroke-width="3" stroke-linecap="round" fill="none" />
  <!-- ponytail: right tentacle + pencil (matches Logo mascot, static) -->
  <g transform="rotate(-8 35 35)">
    <path d="M35 35C36 39 39 41 42 41C44 41 45 40 45 38" stroke="white" stroke-width="3" stroke-linecap="round" fill="none" />
    <g transform="rotate(-25 42 39)">
      <rect x="40.5" y="36" width="3" height="7" rx="0.5" fill="#fbbf24" />
      <rect x="40.5" y="36" width="3" height="1.5" fill="#f59e0b" />
      <path d="M40.5 43L42 45L43.5 43Z" fill="#374151" />
      <rect x="40.5" y="33.5" width="3" height="2.5" rx="0.5" fill="#ec4263" />
    </g>
  </g>
  <circle cx="18" cy="19" r="3" fill="#3b82f6" />
  <circle cx="30" cy="19" r="3" fill="#3b82f6" />
  <circle cx="18.8" cy="18.3" r="1.3" fill="white" />
  <circle cx="30.8" cy="18.3" r="1.3" fill="white" />
  <circle cx="12" cy="25" r="2.5" fill="white" fill-opacity="0.12" />
  <circle cx="36" cy="25" r="2.5" fill="white" fill-opacity="0.12" />
  <path d="M20 28C22 30 26 30 28 28" stroke="#3b82f6" stroke-width="1.5" stroke-linecap="round" fill="none" />
  <rect x="19.5" y="7" width="9" height="2" rx="1" fill="white" fill-opacity="0.3" />
  <!-- ponytail: falling coin (static mid-drop pose) -->
  <g opacity="0.9">
    <circle cx="24" cy="11" r="3" fill="#fbbf24" stroke="#f59e0b" stroke-width="0.5" />
    <text x="24" y="13" text-anchor="middle" font-size="4" fill="#f59e0b" font-weight="bold">B</text>
  </g>
</svg>
